<?xml version="1.0" encoding="UTF-8" standalone="no"?>
<!DOCTYPE svg PUBLIC "-//W3C//DTD SVG 1.1//EN" "http://www.w3.org/Graphics/SVG/1.1/DTD/svg11.dtd">
<svg width="100%" height="100%" viewBox="0 0 138 112" version="1.1" xmlns="http://www.w3.org/2000/svg" xmlns:xlink="http://www.w3.org/1999/xlink" xml:space="preserve" xmlns:serif="http://www.serif.com/" style="fill-rule:evenodd;clip-rule:evenodd;stroke-linejoin:round;stroke-miterlimit:1.41421;">
    <g transform="matrix(0.12,0,0,0.12,-141.095,-393.681)">
        <g transform="matrix(8.33333,0,0,8.33333,0,0)">
            <text x="140.454px" y="502.624px" style="font-family:'BarlowCondensed-Light', 'Barlow Condensed';font-weight:300;font-stretch:condensed;font-size:10.5px;fill:white;">Open Source Photogrammetry Software</text>
        </g>
        <g transform="matrix(8.33333,0,0,8.33333,0,0)">
            <g transform="matrix(1,0,0,1,141.935,459.307)">
                <path d="M0,26.792L0,-0.001C0,-0.263 0.131,-0.395 0.395,-0.395L0.866,-0.395C1.077,-0.395 1.222,-0.289 1.3,-0.079L6.305,12.45C6.33,12.529 6.37,12.563 6.422,12.549C6.475,12.536 6.515,12.503 6.541,12.45L11.663,-0.079C11.741,-0.289 11.886,-0.395 12.096,-0.395L12.569,-0.395C12.831,-0.395 12.963,-0.263 12.963,-0.001L12.963,26.792C12.963,27.056 12.831,27.187 12.569,27.187L12.175,27.187C11.912,27.187 11.781,27.056 11.781,26.792L11.781,2.758C11.781,2.679 11.754,2.634 11.702,2.62C11.648,2.606 11.609,2.64 11.584,2.719L6.974,14.184C6.896,14.395 6.751,14.499 6.541,14.499L6.501,14.499C6.29,14.499 6.146,14.395 6.068,14.184L1.379,2.719C1.353,2.666 1.312,2.64 1.261,2.64C1.208,2.64 1.183,2.679 1.183,2.758L1.183,26.792C1.183,27.056 1.051,27.187 0.788,27.187L0.395,27.187C0.131,27.187 0,27.056 0,26.792" style="fill:white;fill-rule:nonzero;"/>
            </g>
        </g>
        <g transform="matrix(8.33333,0,0,8.33333,0,0)">
            <g transform="matrix(1,0,0,1,172.392,485.39)">
                <path d="M0,-25.374L-9.614,-25.374C-9.72,-25.374 -9.772,-25.321 -9.772,-25.216L-9.772,-13.395C-9.772,-13.291 -9.72,-13.239 -9.614,-13.239L-3.311,-13.239C-3.048,-13.239 -2.916,-13.106 -2.916,-12.845L-2.916,-12.568C-2.916,-12.307 -3.048,-12.175 -3.311,-12.175L-9.614,-12.175C-9.72,-12.175 -9.772,-12.121 -9.772,-12.017L-9.772,-0.157C-9.772,-0.052 -9.72,0 -9.614,0L0,0C0.262,0 0.394,0.132 0.394,0.395L0.394,0.709C0.394,0.973 0.262,1.104 0,1.104L-10.561,1.104C-10.822,1.104 -10.954,0.973 -10.954,0.709L-10.954,-26.084C-10.954,-26.346 -10.822,-26.478 -10.561,-26.478L0,-26.478C0.262,-26.478 0.394,-26.346 0.394,-26.084L0.394,-25.768C0.394,-25.506 0.262,-25.374 0,-25.374" style="fill:white;fill-rule:nonzero;"/>
            </g>
        </g>
        <g transform="matrix(8.33333,0,0,8.33333,0,0)">
            <g transform="matrix(1,0,0,1,178.717,460.47)">
                <path d="M0,24.467C-1.091,23.22 -1.636,21.571 -1.636,19.522L-1.636,18.774C-1.636,18.512 -1.505,18.379 -1.241,18.379L-0.887,18.379C-0.624,18.379 -0.493,18.512 -0.493,18.774L-0.493,19.483C-0.493,21.217 -0.054,22.615 0.827,23.679C1.707,24.742 2.843,25.275 4.235,25.275C5.628,25.275 6.782,24.763 7.702,23.738C8.622,22.713 9.081,21.374 9.081,19.719C9.081,18.643 8.871,17.71 8.451,16.922C8.031,16.134 7.512,15.464 6.895,14.912C6.277,14.361 5.26,13.56 3.842,12.509C2.502,11.485 1.478,10.631 0.768,9.948C0.059,9.265 -0.52,8.477 -0.966,7.584C-1.412,6.692 -1.636,5.627 -1.636,4.392C-1.636,2.448 -1.104,0.919 -0.039,-0.198C1.024,-1.314 2.383,-1.872 4.038,-1.872C5.824,-1.872 7.262,-1.242 8.353,0.019C9.442,1.28 9.987,2.935 9.987,4.983L9.987,5.968C9.987,6.232 9.856,6.363 9.594,6.363L9.239,6.363C8.977,6.363 8.845,6.232 8.845,5.968L8.845,5.023C8.845,3.263 8.405,1.851 7.525,0.787C6.645,-0.277 5.482,-0.808 4.038,-0.808C2.725,-0.808 1.647,-0.348 0.807,0.571C-0.033,1.49 -0.453,2.79 -0.453,4.471C-0.453,5.444 -0.282,6.29 0.059,7.012C0.399,7.735 0.899,8.411 1.556,9.041C2.212,9.672 3.185,10.46 4.472,11.405C6.021,12.562 7.171,13.488 7.919,14.184C8.668,14.879 9.239,15.635 9.633,16.449C10.027,17.264 10.224,18.262 10.224,19.444C10.224,21.519 9.672,23.187 8.569,24.447C7.466,25.708 6.034,26.339 4.274,26.339C2.515,26.339 1.09,25.715 0,24.467" style="fill:white;fill-rule:nonzero;"/>
            </g>
        </g>
        <g transform="matrix(8.33333,0,0,8.33333,0,0)">
            <g transform="matrix(1,0,0,1,205.095,486.494)">
                <path d="M0,-27.581L0.394,-27.581C0.655,-27.581 0.788,-27.449 0.788,-27.187L0.788,-0.394C0.788,-0.131 0.655,0 0.394,0L0,0C-0.264,0 -0.395,-0.131 -0.395,-0.394L-0.395,-13.12C-0.395,-13.225 -0.447,-13.278 -0.552,-13.278L-9.339,-13.278C-9.444,-13.278 -9.497,-13.225 -9.497,-13.12L-9.497,-0.394C-9.497,-0.131 -9.628,0 -9.891,0L-10.285,0C-10.547,0 -10.679,-0.131 -10.679,-0.394L-10.679,-27.187C-10.679,-27.449 -10.547,-27.581 -10.285,-27.581L-9.891,-27.581C-9.628,-27.581 -9.497,-27.449 -9.497,-27.187L-9.497,-14.499C-9.497,-14.394 -9.444,-14.343 -9.339,-14.343L-0.552,-14.343C-0.447,-14.343 -0.395,-14.394 -0.395,-14.499L-0.395,-27.187C-0.395,-27.449 -0.264,-27.581 0,-27.581" style="fill:white;fill-rule:nonzero;"/>
            </g>
        </g>
        <g transform="matrix(8.33333,0,0,8.33333,0,0)">
            <g transform="matrix(1,0,0,1,214,485.233)">
                <path d="M0,-25.139L0,-13.358C0,-13.252 0.052,-13.2 0.157,-13.2L4.768,-13.2C6.186,-13.2 7.321,-13.751 8.176,-14.855C9.029,-15.958 9.456,-17.416 9.456,-19.229C9.456,-21.04 9.029,-22.504 8.176,-23.621C7.321,-24.738 6.186,-25.296 4.768,-25.296L0.157,-25.296C0.052,-25.296 0,-25.243 0,-25.139M9.534,0.945L4.807,-12.018C4.78,-12.097 4.728,-12.136 4.648,-12.136L0.157,-12.136C0.052,-12.136 0,-12.083 0,-11.979L0,0.866C0,1.13 -0.132,1.26 -0.395,1.26L-0.788,1.26C-1.052,1.26 -1.183,1.13 -1.183,0.866L-1.183,-26.005C-1.183,-26.268 -1.052,-26.399 -0.788,-26.399L4.807,-26.399C6.566,-26.399 7.979,-25.743 9.042,-24.429C10.106,-23.116 10.638,-21.382 10.638,-19.229C10.638,-17.363 10.23,-15.813 9.417,-14.578C8.602,-13.344 7.486,-12.57 6.067,-12.254C5.962,-12.201 5.923,-12.136 5.949,-12.057L10.678,0.827L10.717,0.985C10.717,1.169 10.599,1.26 10.362,1.26L10.008,1.26C9.771,1.26 9.614,1.156 9.534,0.945" style="fill:white;fill-rule:nonzero;"/>
            </g>
        </g>
        <g transform="matrix(8.33333,0,0,8.33333,0,0)">
            <g transform="matrix(1,0,0,1,238.506,461.14)">
                <path d="M0,23.127C0.92,22.169 1.38,20.928 1.38,19.404L1.38,3.762C1.38,2.238 0.92,0.99 0,0.019C-0.919,-0.953 -2.114,-1.439 -3.585,-1.439C-5.029,-1.439 -6.205,-0.953 -7.111,0.019C-8.018,0.99 -8.471,2.238 -8.471,3.762L-8.471,19.404C-8.471,20.928 -8.018,22.169 -7.111,23.127C-6.205,24.087 -5.029,24.565 -3.585,24.565C-2.114,24.565 -0.919,24.087 0,23.127M-7.958,23.915C-9.088,22.747 -9.653,21.216 -9.653,19.325L-9.653,3.841C-9.653,1.949 -9.088,0.413 -7.958,-0.769C-6.829,-1.951 -5.371,-2.542 -3.585,-2.542C-1.772,-2.542 -0.295,-1.951 0.848,-0.769C1.99,0.413 2.562,1.949 2.562,3.841L2.562,19.325C2.562,21.216 1.99,22.747 0.848,23.915C-0.295,25.085 -1.772,25.669 -3.585,25.669C-5.371,25.669 -6.829,25.085 -7.958,23.915" style="fill:white;fill-rule:nonzero;"/>
            </g>
        </g>
        <g transform="matrix(8.33333,0,0,8.33333,0,0)">
            <g transform="matrix(1,0,0,1,256.08,461.14)">
                <path d="M0,23.127C0.919,22.169 1.379,20.928 1.379,19.404L1.379,3.762C1.379,2.238 0.919,0.99 0,0.019C-0.921,-0.953 -2.116,-1.439 -3.586,-1.439C-5.031,-1.439 -6.207,-0.953 -7.112,0.019C-8.019,0.99 -8.473,2.238 -8.473,3.762L-8.473,19.404C-8.473,20.928 -8.019,22.169 -7.112,23.127C-6.207,24.087 -5.031,24.565 -3.586,24.565C-2.116,24.565 -0.921,24.087 0,23.127M-7.96,23.915C-9.09,22.747 -9.654,21.216 -9.654,19.325L-9.654,3.841C-9.654,1.949 -9.09,0.413 -7.96,-0.769C-6.831,-1.951 -5.372,-2.542 -3.586,-2.542C-1.774,-2.542 -0.296,-1.951 0.847,-0.769C1.989,0.413 2.561,1.949 2.561,3.841L2.561,19.325C2.561,21.216 1.989,22.747 0.847,23.915C-0.296,25.085 -1.774,25.669 -3.586,25.669C-5.372,25.669 -6.831,25.085 -7.96,23.915" style="fill:white;fill-rule:nonzero;"/>
            </g>
        </g>
        <g transform="matrix(8.33333,0,0,8.33333,0,0)">
            <g transform="matrix(1,0,0,1,264.787,459.307)">
                <path d="M0,26.792L0,-0.001C0,-0.263 0.131,-0.395 0.395,-0.395L0.867,-0.395C1.077,-0.395 1.222,-0.289 1.3,-0.079L6.305,12.45C6.33,12.529 6.369,12.563 6.422,12.549C6.475,12.536 6.514,12.503 6.541,12.45L11.663,-0.079C11.741,-0.289 11.885,-0.395 12.096,-0.395L12.568,-0.395C12.831,-0.395 12.963,-0.263 12.963,-0.001L12.963,26.792C12.963,27.056 12.831,27.187 12.568,27.187L12.175,27.187C11.912,27.187 11.78,27.056 11.78,26.792L11.78,2.758C11.78,2.679 11.754,2.634 11.702,2.62C11.649,2.606 11.609,2.64 11.584,2.719L6.974,14.184C6.896,14.395 6.751,14.499 6.541,14.499L6.501,14.499C6.291,14.499 6.146,14.395 6.067,14.184L1.379,2.719C1.353,2.666 1.313,2.64 1.261,2.64C1.208,2.64 1.183,2.679 1.183,2.758L1.183,26.792C1.183,27.056 1.05,27.187 0.788,27.187L0.395,27.187C0.131,27.187 0,27.056 0,26.792" style="fill:white;fill-rule:nonzero;"/>
            </g>
        </g>
        <g transform="matrix(8.33333,0,0,8.33333,0,0)">
            <g transform="matrix(-1,-0,-0,1,209.923,417.322)">
                <path d="M-12.264,-21.463L12.425,-21.463L0.162,0L-24.689,0L-12.264,-21.463Z" style="fill:rgb(74,190,237);fill-rule:nonzero;"/>
            </g>
        </g>
        <g transform="matrix(8.33333,0,0,8.33333,0,0)">
            <g transform="matrix(0.501038,-0.865425,-0.865425,-0.501038,191.232,428.005)">
                <path d="M6.159,10.683L30.96,10.683L18.529,-10.683L-6.189,-10.824L6.159,10.683Z" style="fill:rgb(33,143,204);fill-rule:nonzero;"/>
            </g>
        </g>
        <g transform="matrix(8.33333,0,0,8.33333,0,0)">
            <g transform="matrix(1,0,0,1,185.072,438.784)">
                <path d="M0,-21.462L24.689,-21.462L37.115,0L12.426,0L0,-21.462Z" style="fill:rgb(74,190,237);fill-rule:nonzero;"/>
            </g>
        </g>
        <g transform="matrix(8.33333,0,0,8.33333,0,0)">
            <g transform="matrix(-0.501038,0.865425,0.865425,0.501038,240.761,428.075)">
                <path d="M-18.575,-32.216L6.226,-32.216L18.573,-10.709L-6.226,-10.709L-18.575,-32.216Z" style="fill:rgb(12,114,186);fill-rule:nonzero;"/>
            </g>
        </g>
        <g transform="matrix(8.33333,0,0,8.33333,0,0)">
            <g transform="matrix(-0.50109,-0.865395,-0.865395,0.50109,224.503,417.289)">
                <path d="M-9.318,-1.375L3.081,-1.375L-0.793,5.372L-13.192,5.372L-9.318,-1.375Z" style="fill:white;fill-rule:nonzero;"/>
            </g>
        </g>
        <g transform="matrix(8.33333,0,0,8.33333,0,0)">
            <g transform="matrix(1,0,0,1,225.567,423.732)">
                <path d="M0,0C0,0.624 -0.289,1.13 -0.646,1.13C-1.002,1.13 -1.291,0.624 -1.291,0C-1.291,-0.624 -1.002,-1.13 -0.646,-1.13C-0.289,-1.13 0,-0.624 0,0" style="fill:rgb(12,114,186);fill-rule:nonzero;"/>
            </g>
        </g>
        <g transform="matrix(8.33333,0,0,8.33333,0,0)">
            <g transform="matrix(1,0,0,1,187.251,417.322)">
                <path d="M0,0C0,1.203 -0.976,2.179 -2.179,2.179C-3.382,2.179 -4.357,1.203 -4.357,0C-4.357,-1.203 -3.382,-2.179 -2.179,-2.179C-0.976,-2.179 0,-1.203 0,0" style="fill:white;fill-rule:nonzero;"/>
            </g>
        </g>
        <g transform="matrix(8.33333,0,0,8.33333,0,0)">
            <g transform="matrix(1,0,0,1,211.94,417.322)">
                <path d="M0,0C0,1.203 -0.976,2.179 -2.179,2.179C-3.382,2.179 -4.357,1.203 -4.357,0C-4.357,-1.203 -3.382,-2.179 -2.179,-2.179C-0.976,-2.179 0,-1.203 0,0" style="fill:white;fill-rule:nonzero;"/>
            </g>
        </g>
        <g transform="matrix(8.33333,0,0,8.33333,0,0)">
            <g transform="matrix(1,0,0,1,199.676,438.784)">
                <path d="M0,0C0,1.203 -0.975,2.179 -2.178,2.179C-3.381,2.179 -4.356,1.203 -4.356,0C-4.356,-1.203 -3.381,-2.179 -2.178,-2.179C-0.975,-2.179 0,-1.203 0,0" style="fill:white;fill-rule:nonzero;"/>
            </g>
        </g>
        <g transform="matrix(8.33333,0,0,8.33333,0,0)">
            <g transform="matrix(1,0,0,1,224.366,438.784)">
                <path d="M0,0C0,1.203 -0.976,2.179 -2.179,2.179C-3.382,2.179 -4.357,1.203 -4.357,0C-4.357,-1.203 -3.382,-2.179 -2.179,-2.179C-0.976,-2.179 0,-1.203 0,0" style="fill:white;fill-rule:nonzero;"/>
            </g>
        </g>
        <g transform="matrix(8.33333,0,0,8.33333,0,0)">
            <g transform="matrix(1,0,0,1,199.676,395.86)">
                <path d="M0,-0.001C0,1.202 -0.975,2.178 -2.178,2.178C-3.381,2.178 -4.356,1.202 -4.356,-0.001C-4.356,-1.204 -3.381,-2.179 -2.178,-2.179C-0.975,-2.179 0,-1.204 0,-0.001" style="fill:white;fill-rule:nonzero;"/>
            </g>
        </g>
        <g transform="matrix(8.33333,0,0,8.33333,0,0)">
            <g transform="matrix(1,0,0,1,224.366,395.86)">
                <path d="M0,-0.001C0,1.202 -0.976,2.178 -2.179,2.178C-3.382,2.178 -4.357,1.202 -4.357,-0.001C-4.357,-1.204 -3.382,-2.179 -2.179,-2.179C-0.976,-2.179 0,-1.204 0,-0.001" style="fill:white;fill-rule:nonzero;"/>
            </g>
        </g>
        <g transform="matrix(8.33333,0,0,8.33333,0,0)">
            <g transform="matrix(1,0,0,1,236.791,417.322)">
                <path d="M0,0C0,1.203 -0.975,2.179 -2.179,2.179C-3.382,2.179 -4.356,1.203 -4.356,0C-4.356,-1.203 -3.382,-2.179 -2.179,-2.179C-0.975,-2.179 0,-1.203 0,0" style="fill:white;fill-rule:nonzero;"/>
            </g>
        </g>
        <g transform="matrix(8.33333,0,0,8.33333,0,0)">
            <g transform="matrix(1,0,0,1,186.191,396.504)">
                <path d="M0,20.172L23.198,20.172L34.876,0L11.679,0L0,20.172ZM23.942,21.463L-2.239,21.463L10.935,-1.291L37.115,-1.291L23.942,21.463Z" style="fill:white;fill-rule:nonzero;"/>
            </g>
        </g>
        <g transform="matrix(8.33333,0,0,8.33333,0,0)">
            <g transform="matrix(1,0,0,1,222.559,395.535)">
                <path d="M0,43.894L-25.434,43.894L-38.046,22.11L-36.929,21.463L-24.689,42.603L-0.744,42.603L11.308,21.787L-0.931,0.648L0.187,0L12.799,21.787L0,43.894Z" style="fill:white;fill-rule:nonzero;"/>
            </g>
        </g>
        <g transform="matrix(8.33333,0,0,8.33333,0,0)">
            <g transform="matrix(-0.501055,-0.865415,-0.865415,0.501055,222.707,417.621)">
                <rect x="-18.055" y="10.409" width="24.8" height="1.29" style="fill:white;"/>
            </g>
        </g>
    </g>
</svg>
